<?xml version="1.0" encoding="UTF-8" standalone="no"?>
<svg width="16px" height="16px" viewBox="0 0 16 16" version="1.1" xmlns="http://www.w3.org/2000/svg" xmlns:xlink="http://www.w3.org/1999/xlink">
    <!-- Generator: Sketch 3.7.2 (28276) - http://www.bohemiancoding.com/sketch -->
    <title>1469622267_Location01</title>
    <desc>Created with Sketch.</desc>
    <defs></defs>
    <g id="Clients" stroke="none" stroke-width="1" fill="none" fill-rule="evenodd">
        <g id="Users" transform="translate(-106.000000, -94.000000)" fill="#8A8A8A">
            <g id="User" transform="translate(1.000000, 47.000000)">
                <g id="Distance" transform="translate(105.000000, 46.000000)">
                    <g id="1469622267_Location01" transform="translate(0.000000, 1.000000)">
                        <g id="Location">
                            <path d="M15.7072432,0.200436364 C15.5384505,0.0298181818 15.284036,-0.0177454545 15.0655135,0.0778181818 L0.467891892,6.50181818 C0.244324324,6.60014545 0.105369369,6.82938182 0.121081081,7.07549091 C0.136648649,7.32101818 0.302846847,7.53090909 0.537225225,7.6 L6.60194595,9.38821818 L8.37405405,15.5082182 C8.44252252,15.7451636 8.65037838,15.9128727 8.89398198,15.9287273 C8.90637838,15.9298909 8.91863063,15.9298909 8.93102703,15.9298909 C9.1605045,15.9298909 9.3698018,15.7933091 9.46248649,15.5789091 L15.829045,0.848581818 C15.9243243,0.627636364 15.8761802,0.370472727 15.7072432,0.200436364 L15.7072432,0.200436364 Z" id="Shape"></path>
                        </g>
                    </g>
                </g>
            </g>
        </g>
    </g>
</svg>